<svg width="349" height="350" viewBox="0 0 349 350" fill="none" xmlns="http://www.w3.org/2000/svg">
<path d="M164.316 35.5478H174.101C175.951 35.5478 177.65 34.526 178.517 32.8916L194.562 2.65658C195.605 0.69212 197.819 -0.347673 199.997 0.105075L230.523 6.4525C232.754 6.91649 234.389 8.83081 234.499 11.1073L236.148 45.3549C236.229 47.0401 237.155 48.5707 238.609 49.4254L248.026 54.9585C249.542 55.8491 251.414 55.8782 252.957 55.0351L282.014 39.1559C284.011 38.0647 286.493 38.4594 288.053 40.1162L309.683 63.0921C311.209 64.7137 311.48 67.1493 310.345 69.0659L293.905 96.8459C292.972 98.4223 292.976 100.383 293.915 101.955L299.572 111.432C300.409 112.833 301.876 113.737 303.503 113.855L336.588 116.257C338.747 116.414 340.56 117.942 341.079 120.043L348.627 150.559C349.192 152.848 348.083 155.22 345.965 156.254L315.068 171.325C313.35 172.163 312.26 173.908 312.26 175.819V188.443C312.26 189.997 312.983 191.463 314.217 192.409L341.66 213.468C343.394 214.799 344.063 217.102 343.311 219.154L332.817 247.806C332.028 249.961 329.874 251.302 327.592 251.058L295.331 247.617C293.518 247.423 291.743 248.232 290.7 249.727L282.125 262.016C281.172 263.381 280.962 265.131 281.563 266.683L293.456 297.393C294.25 299.444 293.611 301.774 291.881 303.132L268.04 321.845C266.195 323.294 263.59 323.264 261.778 321.774L235.876 300.475C234.503 299.346 232.632 299.031 230.964 299.649L215.596 305.339C213.935 305.954 212.723 307.402 212.411 309.145L206.393 342.682C205.991 344.924 204.125 346.61 201.855 346.785L172.435 349.046C170.171 349.22 168.073 347.845 167.328 345.7L156.399 314.212C155.835 312.586 154.473 311.364 152.795 310.978L135.334 306.967C133.617 306.573 131.82 307.111 130.602 308.383L107.523 332.491C105.943 334.142 103.444 334.511 101.454 333.387L76.3951 319.243C74.3803 318.105 73.4089 315.735 74.0465 313.511L83.3137 281.187C83.798 279.497 83.3598 277.677 82.1594 276.394L69.0796 262.406C67.836 261.076 65.9679 260.527 64.2026 260.973L31.8443 269.148C29.5838 269.72 27.2285 268.653 26.1674 266.576L13.2764 241.356C12.282 239.411 12.6659 237.045 14.2243 235.514L38.9141 211.256C40.1287 210.062 40.6525 208.333 40.3042 206.666L36.843 190.102C36.4913 188.419 35.2995 187.034 33.6874 186.437L3.26146 175.152C1.1082 174.353 -0.224111 172.19 0.0312048 169.908L3.33525 140.372C3.57896 138.193 5.21339 136.427 7.3667 136.016L40.0965 129.768C41.7951 129.444 43.2055 128.265 43.826 126.651L49.2608 112.514C49.8775 110.91 49.627 109.101 48.5976 107.725L28.7744 81.2226C27.4078 79.3955 27.4514 76.875 28.8804 75.0963L47.9317 51.3824C49.3098 49.6669 51.6475 49.0541 53.69 49.8729L86.5486 63.0451C88.1463 63.6856 89.9611 63.4592 91.3525 62.4459L101.847 54.8032C103.292 53.751 104.065 52.0076 103.875 50.2304L100.438 18.0536C100.199 15.8146 101.486 13.6919 103.582 12.8687L134.231 0.830849C136.44 -0.0366076 138.954 0.767716 140.249 2.75604L160.126 33.2765C161.049 34.6933 162.625 35.5478 164.316 35.5478Z" fill="#F8CD00"/>
</svg>
