<svg width="82" height="67" viewBox="0 0 82 67" fill="none" xmlns="http://www.w3.org/2000/svg">
<path d="M11.3134 59.0202C-7.97215 50.8059 8.09953 11.5202 24.1706 3.30591L28.099 10.0916C5.95649 29.0202 24.1706 51.1631 16.3136 55.8059L11.3134 59.0202Z" fill="#F8CD00"/>
<path fill-rule="evenodd" clip-rule="evenodd" d="M25.1455 0L31.3051 10.6398L29.7235 11.9919C24.5214 16.439 21.7833 20.9837 20.4036 25.3244C19.0143 29.6953 18.9537 34.0122 19.3381 38.0701C19.5308 40.1036 19.8315 42.0422 20.1262 43.9008C20.1423 44.0024 20.1584 44.104 20.1745 44.2055C20.4474 45.9244 20.7169 47.6219 20.847 49.1547C21.1031 52.1712 20.964 55.9291 17.6302 57.9316L11.5517 61.839L10.3338 61.3202C4.59212 58.8747 1.54768 54.0793 0.471183 48.4763C-0.586745 42.9698 0.215532 36.596 2.09172 30.4348C3.97705 24.2435 7.00613 18.0695 10.6194 12.891C14.207 7.74932 18.5086 3.39228 23.0328 1.07982L25.1455 0ZM11.1421 56.1583L15.0013 53.6775L15.0418 53.6536C15.5931 53.3279 16.1212 52.5968 15.8649 49.5776C15.7508 48.2323 15.5081 46.7024 15.2235 44.9087L15.1879 44.6837C14.8938 42.8286 14.5695 40.7492 14.3604 38.5417C13.9413 34.1175 13.9699 29.0594 15.6385 23.8098C17.1622 19.0163 20.0131 14.1887 24.9173 9.58553L23.2788 6.7552C20.3867 8.75534 17.4253 11.8748 14.7199 15.7521C11.4025 20.5066 8.60565 26.2076 6.87487 31.8913C5.13495 37.6051 4.53091 43.1062 5.38138 47.5329C6.12761 51.4169 7.95747 54.3882 11.1421 56.1583Z" fill="#F8CD00"/>
<path d="M37.3857 46.8773C37.3857 56.7396 29.3908 64.7345 19.5285 64.7345C9.6663 64.7345 1.67139 56.7396 1.67139 46.8773C1.67139 37.0151 9.6663 29.0202 19.5285 29.0202C29.3908 29.0202 37.3857 37.0151 37.3857 46.8773Z" fill="#F8CD00"/>
<path fill-rule="evenodd" clip-rule="evenodd" d="M19.5285 63.7345C28.8385 63.7345 36.3857 56.1873 36.3857 46.8773C36.3857 37.5674 28.8385 30.0202 19.5285 30.0202C10.2186 30.0202 2.67139 37.5674 2.67139 46.8773C2.67139 56.1873 10.2186 63.7345 19.5285 63.7345ZM19.5285 64.7345C29.3908 64.7345 37.3857 56.7396 37.3857 46.8773C37.3857 37.0151 29.3908 29.0202 19.5285 29.0202C9.6663 29.0202 1.67139 37.0151 1.67139 46.8773C1.67139 56.7396 9.6663 64.7345 19.5285 64.7345Z" fill="#F8CD00"/>
<path d="M55.5991 60.4488C36.3135 52.2345 52.3852 12.9488 68.4562 4.73447L72.3847 11.5202C50.2421 30.4488 68.4562 52.5916 60.5993 57.2345L55.5991 60.4488Z" fill="#F8CD00"/>
<path fill-rule="evenodd" clip-rule="evenodd" d="M69.4311 1.42857L75.5908 12.0684L74.0091 13.4205C68.807 17.8675 66.069 22.4123 64.6893 26.7529C63.2999 31.1239 63.2393 35.4407 63.6238 39.4987C63.8164 41.5322 64.1172 43.4707 64.4118 45.3294C64.428 45.431 64.4441 45.5326 64.4602 45.6341C64.7331 47.3529 65.0026 49.0504 65.1327 50.5833C65.3887 53.5998 65.2496 57.3576 61.9158 59.3602L55.8374 63.2676L54.6194 62.7488C48.8778 60.3033 45.8333 55.5079 44.7568 49.9048C43.6989 44.3984 44.5012 38.0246 46.3774 31.8633C48.2627 25.6721 51.2918 19.4981 54.9051 14.3195C58.4926 9.17789 62.7942 4.82085 67.3185 2.5084L69.4311 1.42857ZM55.4278 57.5869L59.287 55.1061L59.3275 55.0822C59.8787 54.7564 60.4068 54.0254 60.1506 51.0062C60.0364 49.6609 59.7937 48.131 59.5092 46.3372L59.4735 46.1122C59.1794 44.2571 58.8552 42.1778 58.646 39.9703C58.2269 35.5461 58.2556 30.4879 59.9242 25.2383C61.4478 20.4449 64.2988 15.6173 69.203 11.0141L67.5644 8.18378C64.6723 10.1839 61.711 13.3033 59.0056 17.1807C55.6881 21.9352 52.8913 27.6361 51.1605 33.3199C49.4206 39.0336 48.8165 44.5348 49.667 48.9614C50.4132 52.8455 52.2431 55.8168 55.4278 57.5869Z" fill="#F8CD00"/>
<path d="M81.6713 48.3059C81.6713 58.1681 73.6764 66.163 63.8142 66.163C53.9519 66.163 45.957 58.1681 45.957 48.3059C45.957 38.4437 53.9519 30.4488 63.8142 30.4488C73.6764 30.4488 81.6713 38.4437 81.6713 48.3059Z" fill="#F8CD00"/>
<path fill-rule="evenodd" clip-rule="evenodd" d="M63.8142 65.163C73.1241 65.163 80.6713 57.6158 80.6713 48.3059C80.6713 38.996 73.1241 31.4488 63.8142 31.4488C54.5042 31.4488 46.957 38.996 46.957 48.3059C46.957 57.6158 54.5042 65.163 63.8142 65.163ZM63.8142 66.163C73.6764 66.163 81.6713 58.1681 81.6713 48.3059C81.6713 38.4437 73.6764 30.4488 63.8142 30.4488C53.9519 30.4488 45.957 38.4437 45.957 48.3059C45.957 58.1681 53.9519 66.163 63.8142 66.163Z" fill="#F8CD00"/>
</svg>
