<svg width="18" height="18" viewBox="0 0 18 18" fill="none" xmlns="http://www.w3.org/2000/svg">
<path fill-rule="evenodd" clip-rule="evenodd" d="M2.22594e-07 1.50382C2.22594e-07 1.10498 0.158438 0.722481 0.440458 0.44046C0.722479 0.158439 1.10498 2.0048e-06 1.50382 2.0048e-06H16.4945C16.6922 -0.00032081 16.888 0.0383444 17.0707 0.113784C17.2534 0.189223 17.4194 0.299955 17.5592 0.439641C17.699 0.579326 17.81 0.745221 17.8856 0.927828C17.9612 1.11044 18.0001 1.30617 18 1.50382V16.4945C18.0002 16.6922 17.9614 16.888 17.8859 17.0707C17.8104 17.2534 17.6996 17.4194 17.5598 17.5593C17.4201 17.6991 17.2541 17.81 17.0715 17.8856C16.8888 17.9612 16.6931 18.0001 16.4954 18H1.50382C1.30627 18 1.11065 17.9611 0.928143 17.8855C0.745638 17.8098 0.579822 17.699 0.440169 17.5593C0.300516 17.4195 0.189762 17.2536 0.114237 17.0711C0.0387109 16.8886 -0.00010726 16.6929 2.22594e-07 16.4954V1.50382ZM7.12473 6.86291H9.56209V8.08691C9.91391 7.38328 10.8139 6.75 12.1664 6.75C14.7592 6.75 15.3736 8.15155 15.3736 10.7231V15.4865H12.7497V11.3089C12.7497 9.84437 12.3979 9.018 11.5045 9.018C10.2649 9.018 9.74945 9.909 9.74945 11.3089V15.4865H7.12473V6.86291ZM2.62473 15.3745H5.24945V6.75H2.62473V15.3736V15.3745ZM5.625 3.93709C5.62995 4.16182 5.58996 4.38528 5.50738 4.59435C5.4248 4.80342 5.30129 4.99389 5.1441 5.15457C4.98691 5.31526 4.79921 5.44293 4.59201 5.5301C4.38481 5.61726 4.16229 5.66216 3.9375 5.66216C3.71271 5.66216 3.49019 5.61726 3.28299 5.5301C3.07579 5.44293 2.88809 5.31526 2.7309 5.15457C2.57371 4.99389 2.4502 4.80342 2.36762 4.59435C2.28504 4.38528 2.24505 4.16182 2.25 3.93709C2.25971 3.49597 2.44177 3.07619 2.75718 2.76765C3.07259 2.45911 3.49627 2.28634 3.9375 2.28634C4.37873 2.28634 4.80241 2.45911 5.11782 2.76765C5.43323 3.07619 5.61529 3.49597 5.625 3.93709Z" fill="white"/>
</svg>
