<svg width="82" height="67" viewBox="0 0 82 67" fill="none" xmlns="http://www.w3.org/2000/svg">
<path d="M70.3581 7.15882C89.6434 15.3918 73.5719 54.7668 57.501 62.9997L53.5726 56.1986C75.7149 37.227 57.501 15.0338 65.3579 10.3804L70.3581 7.15882Z" fill="#F8CD00"/>
<path fill-rule="evenodd" clip-rule="evenodd" d="M56.5252 66.3086L50.3693 55.6511L51.946 54.3001C57.1483 49.8428 59.8871 45.2869 61.2674 40.9345C62.6573 36.5518 62.7179 32.2235 62.3334 28.1554C62.1407 26.1169 61.8399 24.1736 61.5452 22.3108C61.5291 22.209 61.513 22.1072 61.4969 22.0055C61.224 20.2826 60.9545 18.5816 60.8245 17.0457C60.5686 14.0242 60.7072 10.262 64.0392 8.25603L70.1193 4.33863L71.3396 4.85956C77.082 7.311 80.1246 12.1166 81.2004 17.7288C82.2579 23.2453 81.4561 29.6316 79.5801 35.806C77.6952 42.0103 74.6665 48.1976 71.0536 53.3874C67.4665 58.5401 63.1653 62.9069 58.6409 65.2247L56.5252 66.3086ZM70.5295 10.0223L66.6723 12.5075L66.6319 12.5314C66.0789 12.8589 65.5502 13.596 65.8067 16.6238C65.9209 17.9725 66.1636 19.5063 66.4481 21.3039L66.4838 21.5297C66.7779 23.389 67.1021 25.4727 67.3112 27.6849C67.7302 32.1183 67.7015 37.1863 66.0335 42.446C64.5099 47.2501 61.6584 52.0894 56.7517 56.7041L58.3936 59.5467C61.2847 57.542 64.2452 54.416 66.95 50.5307C70.2678 45.7649 73.065 40.0502 74.7961 34.3525C76.5362 28.6249 77.1407 23.1092 76.2898 18.6701C75.5431 14.7749 73.7125 11.7965 70.5295 10.0223Z" fill="#F8CD00"/>
<path d="M44.2861 19.3294C44.2861 9.4448 52.2809 1.43172 62.143 1.43172C72.0052 1.43172 80 9.4448 80 19.3294C80 29.2141 72.0052 37.2272 62.143 37.2272C52.2809 37.2272 44.2861 29.2141 44.2861 19.3294Z" fill="#F8CD00"/>
<path fill-rule="evenodd" clip-rule="evenodd" d="M62.143 2.43172C52.8354 2.43172 45.2861 9.99494 45.2861 19.3294C45.2861 28.664 52.8354 36.2272 62.143 36.2272C71.4507 36.2272 79 28.664 79 19.3294C79 9.99494 71.4507 2.43172 62.143 2.43172ZM62.143 1.43172C52.2809 1.43172 44.2861 9.4448 44.2861 19.3294C44.2861 29.2141 52.2809 37.2272 62.143 37.2272C72.0052 37.2272 80 29.2141 80 19.3294C80 9.4448 72.0052 1.43172 62.143 1.43172Z" fill="#F8CD00"/>
<path d="M26.0719 5.72712C45.3573 13.9601 29.2858 53.3351 13.2149 61.568L9.28651 54.7669C31.4288 35.7953 13.2149 13.6021 21.0718 8.94871L26.0719 5.72712Z" fill="#F8CD00"/>
<path fill-rule="evenodd" clip-rule="evenodd" d="M12.239 64.8769L6.08316 54.2194L7.65988 52.8684C12.8621 48.4111 15.601 43.8552 16.9813 39.5028C18.3712 35.1201 18.4318 30.7918 18.0472 26.7237C17.8545 24.6852 17.5537 22.7419 17.2591 20.8791C17.243 20.7773 17.2269 20.6755 17.2107 20.5738C16.9378 18.8509 16.6684 17.1499 16.5383 15.614C16.2825 12.5925 16.421 8.83034 19.7531 6.82433L25.8332 2.90693L27.0535 3.42786C32.7959 5.8793 35.8385 10.6849 36.9143 16.2971C37.9717 21.8136 37.1699 28.1999 35.294 34.3743C33.409 40.5786 30.3804 46.7659 26.7675 51.9557C23.1804 57.1084 18.8792 61.4752 14.3547 63.793L12.239 64.8769ZM26.2434 8.5906L22.3862 11.0758L22.3457 11.0997C21.7928 11.4272 21.2641 12.1643 21.5205 15.1921C21.6347 16.5408 21.8775 18.0746 22.162 19.8722L22.1977 20.098C22.4918 21.9573 22.8159 24.041 23.025 26.2532C23.4441 30.6866 23.4154 35.7546 21.7474 41.0143C20.2238 45.8184 17.3723 50.6577 12.4656 55.2724L14.1075 58.115C16.9986 56.1103 19.9591 52.9843 22.6639 49.099C25.9817 44.3332 28.7789 38.6185 30.5099 32.9208C32.2501 27.1932 32.8546 21.6775 32.0037 17.2384C31.257 13.3432 29.4263 10.3648 26.2434 8.5906Z" fill="#F8CD00"/>
<path d="M-4.95911e-05 17.8977C-4.95911e-05 8.0131 7.99478 1.52588e-05 17.8569 1.52588e-05C27.719 1.52588e-05 35.7139 8.0131 35.7139 17.8977C35.7139 27.7824 27.719 35.7955 17.8569 35.7955C7.99478 35.7955 -4.95911e-05 27.7824 -4.95911e-05 17.8977Z" fill="#F8CD00"/>
<path fill-rule="evenodd" clip-rule="evenodd" d="M17.8569 1.00002C8.54922 1.00002 0.99995 8.56323 0.99995 17.8977C0.99995 27.2323 8.54922 34.7955 17.8569 34.7955C27.1646 34.7955 34.7139 27.2323 34.7139 17.8977C34.7139 8.56323 27.1646 1.00002 17.8569 1.00002ZM17.8569 1.52588e-05C7.99478 1.52588e-05 -4.95911e-05 8.0131 -4.95911e-05 17.8977C-4.95911e-05 27.7824 7.99478 35.7955 17.8569 35.7955C27.719 35.7955 35.7139 27.7824 35.7139 17.8977C35.7139 8.0131 27.719 1.52588e-05 17.8569 1.52588e-05Z" fill="#F8CD00"/>
</svg>
